<svg fill="none" xmlns="http://www.w3.org/2000/svg" viewBox="100 13 400 799"> <path d="M100 63V13L130.943 43.9429L150 63H100Z" fill="#0078B5"></path> <path d="M150 113V63L180.943 93.9429L200 113H150Z" fill="#0078B5"></path> <path d="M200 63H150V38V13L180.943 43.9429L200 63Z" fill="#0078B5"></path> <path d="M200 13V63L169.057 32.0571L150 13H200Z" fill="#F25230"></path> <path d="M150 13V63L119.057 32.0571L100 13H150Z" fill="#F35131"></path> <path d="M200 63V113L169.057 82.0571L150 63H200Z" fill="#F35131"></path> <path d="M150 63V113L119.057 82.0571L100 63H150Z" fill="#F35131"></path> <path d="M100 113V63L130.943 93.9429L150 113H100Z" fill="#0078B5"></path> <path d="M200 213C200 199.868 197.413 186.864 192.388 174.732C187.362 162.599 179.997 151.575 170.711 142.289C161.425 133.003 150.401 125.638 138.268 120.612C126.136 115.587 113.132 113 100 113L100 213H200Z" fill="#FDC91F"></path> <path d="M171 213C171 203.676 169.164 194.444 165.595 185.829C162.027 177.215 156.798 169.388 150.205 162.795C143.612 156.202 135.785 150.973 127.171 147.405C118.556 143.836 109.324 142 100 142L100 213H171Z" fill="white"></path> <path d="M143 212.5C143 206.919 141.888 201.392 139.727 196.236C137.566 191.08 134.399 186.394 130.406 182.448C126.413 178.501 121.672 175.371 116.455 173.235C111.238 171.099 105.647 170 100 170L100 212.5H143Z" fill="#0078B5"></path> <rect x="200" y="113" width="100" height="100" fill="#F35131"></rect> <path d="M275 163C275 156.37 272.366 150.011 267.678 145.322C262.989 140.634 256.63 138 250 138C243.37 138 237.011 140.634 232.322 145.322C227.634 150.011 225 156.37 225 163L250 163H275Z" fill="white"></path> <path d="M225 163C225 169.63 227.634 175.989 232.322 180.678C237.011 185.366 243.37 188 250 188C256.63 188 262.989 185.366 267.678 180.678C272.366 175.989 275 169.63 275 163L250 163H225Z" fill="#0078B5"></path> <path d="M200 13H300V113H200V13Z" fill="black"></path> <path d="M250 100L206.699 25L293.301 25L250 100Z" fill="#FDC91F"></path> <path d="M234 47C234 51.2435 235.686 55.3132 238.686 58.3137C241.687 61.3143 245.757 63 250 63C254.243 63 258.313 61.3143 261.314 58.3138C264.314 55.3132 266 51.2435 266 47L250 47H234Z" fill="#0078B5"></path> <path d="M300 263V213L330.943 243.943L350 263H300Z" fill="#0078B5"></path> <path d="M350 313V263L380.943 293.943L400 313H350Z" fill="#0078B5"></path> <path d="M400 263H350V238V213L380.943 243.943L400 263Z" fill="#0078B5"></path> <path d="M400 213V263L369.057 232.057L350 213H400Z" fill="#F25230"></path> <path d="M350 213V263L319.057 232.057L300 213H350Z" fill="#F35131"></path> <path d="M400 263V313L369.057 282.057L350 263H400Z" fill="#F35131"></path> <path d="M350 263V313L319.057 282.057L300 263H350Z" fill="#F35131"></path> <path d="M300 313V263L330.943 293.943L350 313H300Z" fill="#0078B5"></path> <path d="M400 413C400 399.868 397.413 386.864 392.388 374.732C387.362 362.599 379.997 351.575 370.711 342.289C361.425 333.003 350.401 325.638 338.268 320.612C326.136 315.587 313.132 313 300 313L300 413H400Z" fill="#FDC91F"></path> <path d="M371 413C371 403.676 369.164 394.444 365.595 385.829C362.027 377.215 356.798 369.388 350.205 362.795C343.612 356.202 335.785 350.973 327.171 347.405C318.556 343.836 309.324 342 300 342L300 413H371Z" fill="white"></path> <path d="M343 412.5C343 406.919 341.888 401.392 339.727 396.236C337.566 391.08 334.399 386.394 330.406 382.448C326.413 378.501 321.672 375.371 316.455 373.235C311.238 371.099 305.647 370 300 370V412.5H343Z" fill="#0078B5"></path> <rect x="400" y="313" width="100" height="100" fill="#F35131"></rect> <path d="M475 363C475 356.37 472.366 350.011 467.678 345.322C462.989 340.634 456.63 338 450 338C443.37 338 437.011 340.634 432.322 345.322C427.634 350.011 425 356.37 425 363L450 363H475Z" fill="white"></path> <path d="M425 363C425 369.63 427.634 375.989 432.322 380.678C437.011 385.366 443.37 388 450 388C456.63 388 462.989 385.366 467.678 380.678C472.366 375.989 475 369.63 475 363L450 363H425Z" fill="#0078B5"></path> <path d="M400 213H500V313H400V213Z" fill="black"></path> <path d="M450 300L406.699 225H493.301L450 300Z" fill="#FDC91F"></path> <path d="M434 247C434 251.244 435.686 255.313 438.686 258.314C441.687 261.314 445.757 263 450 263C454.243 263 458.313 261.314 461.314 258.314C464.314 255.313 466 251.244 466 247L450 247H434Z" fill="#0078B5"></path> <path d="M300 662V612L330.943 642.943L350 662H300Z" fill="#0078B5"></path> <path d="M350 712V662L380.943 692.943L400 712H350Z" fill="#0078B5"></path> <path d="M400 662H350V637V612L380.943 642.943L400 662Z" fill="#0078B5"></path> <path d="M400 612V662L369.057 631.057L350 612H400Z" fill="#F25230"></path> <path d="M350 612V662L319.057 631.057L300 612H350Z" fill="#F35131"></path> <path d="M400 662V712L369.057 681.057L350 662H400Z" fill="#F35131"></path> <path d="M350 662V712L319.057 681.057L300 662H350Z" fill="#F35131"></path> <path d="M300 712V662L330.943 692.943L350 712H300Z" fill="#0078B5"></path> <path d="M400 812C400 798.868 397.413 785.864 392.388 773.732C387.362 761.599 379.997 750.575 370.711 741.289C361.425 732.003 350.401 724.638 338.268 719.612C326.136 714.587 313.132 712 300 712L300 812H400Z" fill="#FDC91F"></path> <path d="M371 812C371 802.676 369.164 793.444 365.595 784.829C362.027 776.215 356.798 768.388 350.205 761.795C343.612 755.202 335.785 749.973 327.171 746.405C318.556 742.836 309.324 741 300 741L300 812H371Z" fill="white"></path> <path d="M343 811.5C343 805.919 341.888 800.392 339.727 795.236C337.566 790.08 334.399 785.394 330.406 781.448C326.413 777.501 321.672 774.371 316.455 772.235C311.238 770.099 305.647 769 300 769V811.5H343Z" fill="#0078B5"></path> <rect x="400" y="712" width="100" height="100" fill="#F35131"></rect> <path d="M475 762C475 755.37 472.366 749.011 467.678 744.322C462.989 739.634 456.63 737 450 737C443.37 737 437.011 739.634 432.322 744.322C427.634 749.011 425 755.37 425 762L450 762H475Z" fill="white"></path> <path d="M425 762C425 768.63 427.634 774.989 432.322 779.678C437.011 784.366 443.37 787 450 787C456.63 787 462.989 784.366 467.678 779.678C472.366 774.989 475 768.63 475 762L450 762H425Z" fill="#0078B5"></path> <path d="M400 612H500V712H400V612Z" fill="black"></path> <path d="M450 699L406.699 624H493.301L450 699Z" fill="#FDC91F"></path> <path d="M434 646C434 650.244 435.686 654.313 438.686 657.314C441.687 660.314 445.757 662 450 662C454.243 662 458.313 660.314 461.314 657.314C464.314 654.313 466 650.244 466 646L450 646H434Z" fill="#0078B5"></path> <path d="M100 462V412L130.943 442.943L150 462H100Z" fill="#0078B5"></path> <path d="M150 512V462L180.943 492.943L200 512H150Z" fill="#0078B5"></path> <path d="M200 462H150V437V412L180.943 442.943L200 462Z" fill="#0078B5"></path> <path d="M200 412V462L169.057 431.057L150 412H200Z" fill="#F25230"></path> <path d="M150 412V462L119.057 431.057L100 412H150Z" fill="#F35131"></path> <path d="M200 462V512L169.057 481.057L150 462H200Z" fill="#F35131"></path> <path d="M150 462V512L119.057 481.057L100 462H150Z" fill="#F35131"></path> <path d="M100 512V462L130.943 492.943L150 512H100Z" fill="#0078B5"></path> <path d="M200 612C200 598.868 197.413 585.864 192.388 573.732C187.362 561.599 179.997 550.575 170.711 541.289C161.425 532.003 150.401 524.638 138.268 519.612C126.136 514.587 113.132 512 100 512L100 612H200Z" fill="#FDC91F"></path> <path d="M171 612C171 602.676 169.164 593.444 165.595 584.829C162.027 576.215 156.798 568.388 150.205 561.795C143.612 555.202 135.785 549.973 127.171 546.405C118.556 542.836 109.324 541 100 541L100 612H171Z" fill="white"></path> <path d="M143 611.5C143 605.919 141.888 600.392 139.727 595.236C137.566 590.08 134.399 585.394 130.406 581.448C126.413 577.501 121.672 574.371 116.455 572.235C111.238 570.099 105.647 569 100 569V611.5H143Z" fill="#0078B5"></path> <rect x="200" y="512" width="100" height="100" fill="#F35131"></rect> <path d="M275 562C275 555.37 272.366 549.011 267.678 544.322C262.989 539.634 256.63 537 250 537C243.37 537 237.011 539.634 232.322 544.322C227.634 549.011 225 555.37 225 562L250 562H275Z" fill="white"></path> <path d="M225 562C225 568.63 227.634 574.989 232.322 579.678C237.011 584.366 243.37 587 250 587C256.63 587 262.989 584.366 267.678 579.678C272.366 574.989 275 568.63 275 562L250 562H225Z" fill="#0078B5"></path> <path d="M200 412H300V512H200V412Z" fill="black"></path> <path d="M250 499L206.699 424H293.301L250 499Z" fill="#FDC91F"></path> <path d="M234 446C234 450.244 235.686 454.313 238.686 457.314C241.687 460.314 245.757 462 250 462C254.243 462 258.313 460.314 261.314 457.314C264.314 454.313 266 450.244 266 446L250 446H234Z" fill="#0078B5"></path> </svg>